<mxfile host="app.diagrams.net" modified="2023-12-06T23:36:29.363Z" agent="Mozilla/5.0 (Windows NT 10.0; Win64; x64) AppleWebKit/537.36 (KHTML, like Gecko) Chrome/119.0.0.0 Safari/537.36 Edg/119.0.0.0" etag="oM16NOB3OVYUq0riidj7" version="22.1.6" type="google">
  <diagram name="Pagina-1" id="kVooIhPU2rkoCFdK2LHJ">
    <mxGraphModel grid="1" page="1" gridSize="10" guides="1" tooltips="1" connect="1" arrows="1" fold="1" pageScale="1" pageWidth="827" pageHeight="1169" math="0" shadow="0">
      <root>
        <mxCell id="0" />
        <mxCell id="1" parent="0" />
        <mxCell id="1E0dOz9bMTVQA5IC1F03-9" value="" style="line;strokeWidth=1;fillColor=none;align=left;verticalAlign=middle;spacingTop=-1;spacingLeft=3;spacingRight=3;rotatable=0;labelPosition=right;points=[];portConstraint=eastwest;strokeColor=inherit;dashed=1;" vertex="1" parent="1">
          <mxGeometry x="100" y="372" width="840" height="8" as="geometry" />
        </mxCell>
        <mxCell id="1E0dOz9bMTVQA5IC1F03-52" value="" style="line;strokeWidth=1;fillColor=none;align=left;verticalAlign=middle;spacingTop=-1;spacingLeft=3;spacingRight=3;rotatable=0;labelPosition=right;points=[];portConstraint=eastwest;strokeColor=inherit;dashed=1;" vertex="1" parent="1">
          <mxGeometry x="100" y="636" width="840" height="8" as="geometry" />
        </mxCell>
        <mxCell id="1E0dOz9bMTVQA5IC1F03-88" value="" style="line;strokeWidth=1;fillColor=none;align=left;verticalAlign=middle;spacingTop=-1;spacingLeft=3;spacingRight=3;rotatable=0;labelPosition=right;points=[];portConstraint=eastwest;strokeColor=inherit;dashed=1;" vertex="1" parent="1">
          <mxGeometry x="100" y="940" width="840" height="8" as="geometry" />
        </mxCell>
        <mxCell id="E0s9owtsk1SM0bqnMgh_-17" value="" style="line;strokeWidth=1;fillColor=none;align=left;verticalAlign=middle;spacingTop=-1;spacingLeft=3;spacingRight=3;rotatable=0;labelPosition=right;points=[];portConstraint=eastwest;strokeColor=inherit;dashed=1;" vertex="1" parent="1">
          <mxGeometry x="100" y="1330" width="840" height="8" as="geometry" />
        </mxCell>
        <mxCell id="9F1jh5PW8uQruH1zrCdh-14" value=":StackCalc" style="shape=umlLifeline;perimeter=lifelinePerimeter;whiteSpace=wrap;html=1;container=1;dropTarget=0;collapsible=0;recursiveResize=0;outlineConnect=0;portConstraint=eastwest;newEdgeStyle={&quot;curved&quot;:0,&quot;rounded&quot;:0};" vertex="1" parent="1">
          <mxGeometry x="505" y="80" width="100" height="1480" as="geometry" />
        </mxCell>
        <mxCell id="JTToezeW8souKB9VHQ9I-14" value="" style="html=1;points=[[0,0,0,0,5],[0,1,0,0,-5],[1,0,0,0,5],[1,1,0,0,-5]];perimeter=orthogonalPerimeter;outlineConnect=0;targetShapes=umlLifeline;portConstraint=eastwest;newEdgeStyle={&quot;curved&quot;:0,&quot;rounded&quot;:0};" vertex="1" parent="9F1jh5PW8uQruH1zrCdh-14">
          <mxGeometry x="45" y="57.5" width="10" height="1402.5" as="geometry" />
        </mxCell>
        <mxCell id="9F1jh5PW8uQruH1zrCdh-13" value=":Calculator" style="shape=umlLifeline;perimeter=lifelinePerimeter;whiteSpace=wrap;html=1;container=1;dropTarget=0;collapsible=0;recursiveResize=0;outlineConnect=0;portConstraint=eastwest;newEdgeStyle={&quot;curved&quot;:0,&quot;rounded&quot;:0};" vertex="1" parent="1">
          <mxGeometry x="134" y="80" width="100" height="1470" as="geometry" />
        </mxCell>
        <mxCell id="9F1jh5PW8uQruH1zrCdh-12" value=":Variables" style="shape=umlLifeline;perimeter=lifelinePerimeter;whiteSpace=wrap;html=1;container=1;dropTarget=0;collapsible=0;recursiveResize=0;outlineConnect=0;portConstraint=eastwest;newEdgeStyle={&quot;curved&quot;:0,&quot;rounded&quot;:0};" vertex="1" parent="1">
          <mxGeometry x="325" y="80" width="104.5" height="1480" as="geometry" />
        </mxCell>
        <mxCell id="JTToezeW8souKB9VHQ9I-4" value="" style="html=1;points=[[0,0,0,0,5],[0,1,0,0,-5],[1,0,0,0,5],[1,1,0,0,-5]];perimeter=orthogonalPerimeter;outlineConnect=0;targetShapes=umlLifeline;portConstraint=eastwest;newEdgeStyle={&quot;curved&quot;:0,&quot;rounded&quot;:0};" vertex="1" parent="1">
          <mxGeometry x="180" y="150" width="10" height="1370" as="geometry" />
        </mxCell>
        <mxCell id="JTToezeW8souKB9VHQ9I-5" value="" style="endArrow=open;endFill=1;endSize=12;html=1;rounded=0;entryX=0;entryY=0;entryDx=0;entryDy=5;entryPerimeter=0;" edge="1" parent="1">
          <mxGeometry width="160" relative="1" as="geometry">
            <mxPoint x="190" y="175.5" as="sourcePoint" />
            <mxPoint x="370" y="175.5" as="targetPoint" />
          </mxGeometry>
        </mxCell>
        <mxCell id="JTToezeW8souKB9VHQ9I-6" value="" style="html=1;points=[[0,0,0,0,5],[0,1,0,0,-5],[1,0,0,0,5],[1,1,0,0,-5]];perimeter=orthogonalPerimeter;outlineConnect=0;targetShapes=umlLifeline;portConstraint=eastwest;newEdgeStyle={&quot;curved&quot;:0,&quot;rounded&quot;:0};" vertex="1" parent="1">
          <mxGeometry x="370" y="170" width="10" height="240" as="geometry" />
        </mxCell>
        <mxCell id="JTToezeW8souKB9VHQ9I-7" value="Variables()" style="text;align=center;fontStyle=1;verticalAlign=middle;spacingLeft=3;spacingRight=3;strokeColor=none;rotatable=0;points=[[0,0.5],[1,0.5]];portConstraint=eastwest;html=1;" vertex="1" parent="1">
          <mxGeometry x="230" y="150" width="80" height="26" as="geometry" />
        </mxCell>
        <mxCell id="JTToezeW8souKB9VHQ9I-37" value="opt" style="shape=umlFrame;whiteSpace=wrap;html=1;pointerEvents=0;" vertex="1" parent="1">
          <mxGeometry x="80" y="196" width="890" height="254" as="geometry" />
        </mxCell>
        <mxCell id="O0aGhMnzpYzXoTUy4jIY-9" value="" style="endArrow=open;endFill=1;endSize=12;html=1;rounded=0;entryX=0;entryY=0;entryDx=0;entryDy=5;entryPerimeter=0;" edge="1" parent="1" source="9F1jh5PW8uQruH1zrCdh-1">
          <mxGeometry width="160" relative="1" as="geometry">
            <mxPoint x="60" y="165" as="sourcePoint" />
            <mxPoint x="180" y="165" as="targetPoint" />
          </mxGeometry>
        </mxCell>
        <mxCell id="JTToezeW8souKB9VHQ9I-18" value="[if varToStack]" style="text;align=center;fontStyle=1;verticalAlign=middle;spacingLeft=3;spacingRight=3;strokeColor=none;rotatable=0;points=[[0,0.5],[1,0.5]];portConstraint=eastwest;html=1;" vertex="1" parent="1">
          <mxGeometry x="180" y="190" width="80" height="26" as="geometry" />
        </mxCell>
        <mxCell id="O0aGhMnzpYzXoTUy4jIY-59" value="&lt;font style=&quot;font-size: 18px;&quot;&gt;[isFull()]&lt;/font&gt;" style="text;html=1;strokeColor=none;fillColor=none;align=center;verticalAlign=middle;whiteSpace=wrap;rounded=0;fontSize=16;" vertex="1" parent="1">
          <mxGeometry x="170.5" y="246" width="60" height="30" as="geometry" />
        </mxCell>
        <mxCell id="1E0dOz9bMTVQA5IC1F03-6" value="A. varToStack(Character var)" style="text;align=center;fontStyle=1;verticalAlign=middle;spacingLeft=3;spacingRight=3;strokeColor=none;rotatable=0;points=[[0,0.5],[1,0.5]];portConstraint=eastwest;html=1;" vertex="1" parent="1">
          <mxGeometry x="170" y="210" width="223" height="26" as="geometry" />
        </mxCell>
        <mxCell id="1E0dOz9bMTVQA5IC1F03-8" value="Alt" style="shape=umlFrame;whiteSpace=wrap;html=1;pointerEvents=0;" vertex="1" parent="1">
          <mxGeometry x="100" y="246" width="840" height="184" as="geometry" />
        </mxCell>
        <mxCell id="1E0dOz9bMTVQA5IC1F03-11" value="" style="endArrow=open;endFill=1;endSize=12;html=1;rounded=0;" edge="1" parent="1">
          <mxGeometry width="160" relative="1" as="geometry">
            <mxPoint x="190" y="232" as="sourcePoint" />
            <mxPoint x="370" y="231.99999999999977" as="targetPoint" />
          </mxGeometry>
        </mxCell>
        <mxCell id="1E0dOz9bMTVQA5IC1F03-20" value="" style="html=1;verticalAlign=bottom;endArrow=open;dashed=1;endSize=8;curved=0;rounded=0;fontSize=12;" edge="1" parent="1" source="9F1jh5PW8uQruH1zrCdh-6" target="JTToezeW8souKB9VHQ9I-14">
          <mxGeometry y="-50" relative="1" as="geometry">
            <mxPoint x="750" y="358" as="sourcePoint" />
            <mxPoint x="580" y="358" as="targetPoint" />
            <Array as="points">
              <mxPoint x="630" y="358" />
            </Array>
            <mxPoint as="offset" />
          </mxGeometry>
        </mxCell>
        <mxCell id="1E0dOz9bMTVQA5IC1F03-21" value="" style="html=1;verticalAlign=bottom;endArrow=open;dashed=1;endSize=8;curved=0;rounded=0;fontSize=12;" edge="1" parent="1">
          <mxGeometry y="-50" relative="1" as="geometry">
            <mxPoint x="550" y="358" as="sourcePoint" />
            <mxPoint x="190" y="358" as="targetPoint" />
            <Array as="points">
              <mxPoint x="480" y="358" />
            </Array>
            <mxPoint as="offset" />
          </mxGeometry>
        </mxCell>
        <mxCell id="1E0dOz9bMTVQA5IC1F03-27" value="error" style="text;align=center;fontStyle=1;verticalAlign=middle;spacingLeft=3;spacingRight=3;strokeColor=none;rotatable=0;points=[[0,0.5],[1,0.5]];portConstraint=eastwest;html=1;" vertex="1" parent="1">
          <mxGeometry x="240" y="330" width="80" height="26" as="geometry" />
        </mxCell>
        <mxCell id="1E0dOz9bMTVQA5IC1F03-28" value="" style="endArrow=open;endFill=1;endSize=12;html=1;rounded=0;" edge="1" parent="1">
          <mxGeometry width="160" relative="1" as="geometry">
            <mxPoint x="379.9966666666665" y="410" as="sourcePoint" />
            <mxPoint x="550" y="410.5" as="targetPoint" />
          </mxGeometry>
        </mxCell>
        <mxCell id="1E0dOz9bMTVQA5IC1F03-29" value="push()" style="text;strokeColor=none;align=center;fillColor=none;html=1;verticalAlign=middle;whiteSpace=wrap;rounded=0;" vertex="1" parent="1">
          <mxGeometry x="385.5" y="379.996" width="60" height="30" as="geometry" />
        </mxCell>
        <mxCell id="1E0dOz9bMTVQA5IC1F03-47" value="opt" style="shape=umlFrame;whiteSpace=wrap;html=1;pointerEvents=0;" vertex="1" parent="1">
          <mxGeometry x="80" y="470" width="890" height="270" as="geometry" />
        </mxCell>
        <mxCell id="1E0dOz9bMTVQA5IC1F03-48" value="[if stackToVar]" style="text;align=center;fontStyle=1;verticalAlign=middle;spacingLeft=3;spacingRight=3;strokeColor=none;rotatable=0;points=[[0,0.5],[1,0.5]];portConstraint=eastwest;html=1;" vertex="1" parent="1">
          <mxGeometry x="145" y="470" width="80" height="26" as="geometry" />
        </mxCell>
        <mxCell id="1E0dOz9bMTVQA5IC1F03-49" value="[!leastOne()]" style="text;html=1;strokeColor=none;fillColor=none;align=center;verticalAlign=middle;whiteSpace=wrap;rounded=0;fontSize=16;" vertex="1" parent="1">
          <mxGeometry x="149.5" y="525" width="110.5" height="30" as="geometry" />
        </mxCell>
        <mxCell id="1E0dOz9bMTVQA5IC1F03-50" value="B. stackToVar(Character var)" style="text;align=center;fontStyle=1;verticalAlign=middle;spacingLeft=3;spacingRight=3;strokeColor=none;rotatable=0;points=[[0,0.5],[1,0.5]];portConstraint=eastwest;html=1;" vertex="1" parent="1">
          <mxGeometry x="180" y="479" width="190" height="26" as="geometry" />
        </mxCell>
        <mxCell id="1E0dOz9bMTVQA5IC1F03-51" value="Alt" style="shape=umlFrame;whiteSpace=wrap;html=1;pointerEvents=0;" vertex="1" parent="1">
          <mxGeometry x="100" y="525" width="840" height="195" as="geometry" />
        </mxCell>
        <mxCell id="1E0dOz9bMTVQA5IC1F03-53" value="" style="endArrow=open;endFill=1;endSize=12;html=1;rounded=0;" edge="1" parent="1">
          <mxGeometry width="160" relative="1" as="geometry">
            <mxPoint x="189.5" y="507" as="sourcePoint" />
            <mxPoint x="369.5" y="506.9999999999998" as="targetPoint" />
          </mxGeometry>
        </mxCell>
        <mxCell id="1E0dOz9bMTVQA5IC1F03-64" value="pop()" style="text;strokeColor=none;align=center;fillColor=none;html=1;verticalAlign=middle;whiteSpace=wrap;rounded=0;" vertex="1" parent="1">
          <mxGeometry x="393" y="635.996" width="60" height="30" as="geometry" />
        </mxCell>
        <mxCell id="1E0dOz9bMTVQA5IC1F03-67" value="" style="endArrow=open;endFill=1;endSize=12;html=1;rounded=0;" edge="1" parent="1">
          <mxGeometry width="160" relative="1" as="geometry">
            <mxPoint x="380" y="276" as="sourcePoint" />
            <mxPoint x="550" y="276" as="targetPoint" />
          </mxGeometry>
        </mxCell>
        <mxCell id="1E0dOz9bMTVQA5IC1F03-68" value="&lt;font style=&quot;font-size: 12px;&quot;&gt;isFull()&lt;/font&gt;" style="text;html=1;strokeColor=none;fillColor=none;align=center;verticalAlign=middle;whiteSpace=wrap;rounded=0;fontSize=16;" vertex="1" parent="1">
          <mxGeometry x="393" y="246" width="60" height="30" as="geometry" />
        </mxCell>
        <mxCell id="1E0dOz9bMTVQA5IC1F03-70" value="" style="endArrow=open;endFill=1;endSize=12;html=1;rounded=0;" edge="1" parent="1">
          <mxGeometry width="160" relative="1" as="geometry">
            <mxPoint x="378.9966666666665" y="553.55" as="sourcePoint" />
            <mxPoint x="549" y="554.05" as="targetPoint" />
          </mxGeometry>
        </mxCell>
        <mxCell id="1E0dOz9bMTVQA5IC1F03-71" value="&lt;font style=&quot;font-size: 12px;&quot;&gt;!leastOne()&lt;/font&gt;" style="text;html=1;strokeColor=none;fillColor=none;align=center;verticalAlign=middle;whiteSpace=wrap;rounded=0;fontSize=16;" vertex="1" parent="1">
          <mxGeometry x="395.5" y="528" width="90" height="30" as="geometry" />
        </mxCell>
        <mxCell id="1E0dOz9bMTVQA5IC1F03-73" value="error" style="text;align=center;fontStyle=1;verticalAlign=middle;spacingLeft=3;spacingRight=3;strokeColor=none;rotatable=0;points=[[0,0.5],[1,0.5]];portConstraint=eastwest;html=1;" vertex="1" parent="1">
          <mxGeometry x="570" y="900" width="80" height="26" as="geometry" />
        </mxCell>
        <mxCell id="1E0dOz9bMTVQA5IC1F03-80" value="" style="html=1;verticalAlign=bottom;endArrow=open;dashed=1;endSize=8;curved=0;rounded=0;fontSize=12;" edge="1" parent="1">
          <mxGeometry y="-50" relative="1" as="geometry">
            <mxPoint x="827.5" y="625" as="sourcePoint" />
            <mxPoint x="560" y="625" as="targetPoint" />
            <Array as="points">
              <mxPoint x="610" y="625" />
            </Array>
            <mxPoint as="offset" />
          </mxGeometry>
        </mxCell>
        <mxCell id="1E0dOz9bMTVQA5IC1F03-81" value="" style="html=1;verticalAlign=bottom;endArrow=open;dashed=1;endSize=8;curved=0;rounded=0;fontSize=12;" edge="1" parent="1">
          <mxGeometry y="-50" relative="1" as="geometry">
            <mxPoint x="550" y="625" as="sourcePoint" />
            <mxPoint x="190" y="625" as="targetPoint" />
            <Array as="points">
              <mxPoint x="370" y="625" />
            </Array>
            <mxPoint as="offset" />
          </mxGeometry>
        </mxCell>
        <mxCell id="1E0dOz9bMTVQA5IC1F03-82" value="error" style="text;align=center;fontStyle=1;verticalAlign=middle;spacingLeft=3;spacingRight=3;strokeColor=none;rotatable=0;points=[[0,0.5],[1,0.5]];portConstraint=eastwest;html=1;" vertex="1" parent="1">
          <mxGeometry x="230.5" y="605" width="80" height="26" as="geometry" />
        </mxCell>
        <mxCell id="1E0dOz9bMTVQA5IC1F03-83" value="opt" style="shape=umlFrame;whiteSpace=wrap;html=1;pointerEvents=0;" vertex="1" parent="1">
          <mxGeometry x="80" y="760" width="890" height="376" as="geometry" />
        </mxCell>
        <mxCell id="1E0dOz9bMTVQA5IC1F03-84" value="[if addToVar]" style="text;align=center;fontStyle=1;verticalAlign=middle;spacingLeft=3;spacingRight=3;strokeColor=none;rotatable=0;points=[[0,0.5],[1,0.5]];portConstraint=eastwest;html=1;" vertex="1" parent="1">
          <mxGeometry x="144" y="760" width="80" height="26" as="geometry" />
        </mxCell>
        <mxCell id="1E0dOz9bMTVQA5IC1F03-86" value="C. addToVar(Character var)" style="text;align=center;fontStyle=1;verticalAlign=middle;spacingLeft=3;spacingRight=3;strokeColor=none;rotatable=0;points=[[0,0.5],[1,0.5]];portConstraint=eastwest;html=1;" vertex="1" parent="1">
          <mxGeometry x="190" y="774" width="180" height="26" as="geometry" />
        </mxCell>
        <mxCell id="1E0dOz9bMTVQA5IC1F03-87" value="Alt" style="shape=umlFrame;whiteSpace=wrap;html=1;pointerEvents=0;" vertex="1" parent="1">
          <mxGeometry x="100" y="810" width="840" height="310" as="geometry" />
        </mxCell>
        <mxCell id="1E0dOz9bMTVQA5IC1F03-89" value="" style="endArrow=open;endFill=1;endSize=12;html=1;rounded=0;" edge="1" parent="1">
          <mxGeometry width="160" relative="1" as="geometry">
            <mxPoint x="190" y="799" as="sourcePoint" />
            <mxPoint x="370" y="798.9999999999998" as="targetPoint" />
          </mxGeometry>
        </mxCell>
        <mxCell id="1E0dOz9bMTVQA5IC1F03-104" value="" style="endArrow=open;endFill=1;endSize=12;html=1;rounded=0;" edge="1" parent="1">
          <mxGeometry width="160" relative="1" as="geometry">
            <mxPoint x="380" y="976" as="sourcePoint" />
            <mxPoint x="550" y="976" as="targetPoint" />
          </mxGeometry>
        </mxCell>
        <mxCell id="1E0dOz9bMTVQA5IC1F03-105" value="" style="endArrow=open;endFill=1;endSize=12;html=1;rounded=0;" edge="1" parent="1">
          <mxGeometry width="160" relative="1" as="geometry">
            <mxPoint x="377.9966666666665" y="661.5" as="sourcePoint" />
            <mxPoint x="548" y="662" as="targetPoint" />
          </mxGeometry>
        </mxCell>
        <mxCell id="1E0dOz9bMTVQA5IC1F03-106" value="Number( ultimo.getRe() - decremento.getRe(), &lt;br&gt;ultimo.getIm() - decremento.getIm()()" style="text;strokeColor=none;align=center;fillColor=none;html=1;verticalAlign=middle;whiteSpace=wrap;rounded=0;" vertex="1" parent="1">
          <mxGeometry x="102" y="1380" width="293.5" height="30" as="geometry" />
        </mxCell>
        <mxCell id="1E0dOz9bMTVQA5IC1F03-113" value="pop()" style="text;strokeColor=none;align=center;fillColor=none;html=1;verticalAlign=middle;whiteSpace=wrap;rounded=0;" vertex="1" parent="1">
          <mxGeometry x="433" y="947.996" width="60" height="30" as="geometry" />
        </mxCell>
        <mxCell id="E0s9owtsk1SM0bqnMgh_-2" value="" style="endArrow=open;endFill=1;endSize=12;html=1;rounded=0;" edge="1" parent="1">
          <mxGeometry width="160" relative="1" as="geometry">
            <mxPoint x="559.9966666666664" y="601" as="sourcePoint" />
            <mxPoint x="827.5" y="601" as="targetPoint" />
          </mxGeometry>
        </mxCell>
        <mxCell id="E0s9owtsk1SM0bqnMgh_-4" value="&lt;font style=&quot;font-size: 12px;&quot;&gt;!leastOne()&lt;/font&gt;" style="text;html=1;strokeColor=none;fillColor=none;align=center;verticalAlign=middle;whiteSpace=wrap;rounded=0;fontSize=16;" vertex="1" parent="1">
          <mxGeometry x="410" y="810" width="83" height="30" as="geometry" />
        </mxCell>
        <mxCell id="E0s9owtsk1SM0bqnMgh_-5" value="" style="endArrow=open;endFill=1;endSize=12;html=1;rounded=0;" edge="1" parent="1">
          <mxGeometry width="160" relative="1" as="geometry">
            <mxPoint x="377.9966666666665" y="835.5" as="sourcePoint" />
            <mxPoint x="548" y="836" as="targetPoint" />
          </mxGeometry>
        </mxCell>
        <mxCell id="E0s9owtsk1SM0bqnMgh_-7" value="" style="endArrow=open;endFill=1;endSize=12;html=1;rounded=0;" edge="1" parent="1">
          <mxGeometry width="160" relative="1" as="geometry">
            <mxPoint x="559.9966666666664" y="893" as="sourcePoint" />
            <mxPoint x="827" y="895" as="targetPoint" />
          </mxGeometry>
        </mxCell>
        <mxCell id="E0s9owtsk1SM0bqnMgh_-8" value="error" style="text;align=center;fontStyle=1;verticalAlign=middle;spacingLeft=3;spacingRight=3;strokeColor=none;rotatable=0;points=[[0,0.5],[1,0.5]];portConstraint=eastwest;html=1;" vertex="1" parent="1">
          <mxGeometry x="580" y="605" width="80" height="26" as="geometry" />
        </mxCell>
        <mxCell id="E0s9owtsk1SM0bqnMgh_-9" value="" style="html=1;verticalAlign=bottom;endArrow=open;dashed=1;endSize=8;curved=0;rounded=0;fontSize=12;" edge="1" parent="1">
          <mxGeometry y="-50" relative="1" as="geometry">
            <mxPoint x="827" y="919" as="sourcePoint" />
            <mxPoint x="560" y="919" as="targetPoint" />
            <Array as="points">
              <mxPoint x="610" y="919" />
            </Array>
            <mxPoint as="offset" />
          </mxGeometry>
        </mxCell>
        <mxCell id="E0s9owtsk1SM0bqnMgh_-10" value="" style="html=1;verticalAlign=bottom;endArrow=open;dashed=1;endSize=8;curved=0;rounded=0;fontSize=12;" edge="1" parent="1">
          <mxGeometry y="-50" relative="1" as="geometry">
            <mxPoint x="550" y="918" as="sourcePoint" />
            <mxPoint x="190" y="918" as="targetPoint" />
            <Array as="points">
              <mxPoint x="240" y="918" />
            </Array>
            <mxPoint as="offset" />
          </mxGeometry>
        </mxCell>
        <mxCell id="E0s9owtsk1SM0bqnMgh_-11" value="error" style="text;align=center;fontStyle=1;verticalAlign=middle;spacingLeft=3;spacingRight=3;strokeColor=none;rotatable=0;points=[[0,0.5],[1,0.5]];portConstraint=eastwest;html=1;" vertex="1" parent="1">
          <mxGeometry x="270" y="895" width="80" height="26" as="geometry" />
        </mxCell>
        <mxCell id="E0s9owtsk1SM0bqnMgh_-12" value="error" style="text;align=center;fontStyle=1;verticalAlign=middle;spacingLeft=3;spacingRight=3;strokeColor=none;rotatable=0;points=[[0,0.5],[1,0.5]];portConstraint=eastwest;html=1;" vertex="1" parent="1">
          <mxGeometry x="570.5" y="1290" width="80" height="26" as="geometry" />
        </mxCell>
        <mxCell id="E0s9owtsk1SM0bqnMgh_-13" value="opt" style="shape=umlFrame;whiteSpace=wrap;html=1;pointerEvents=0;" vertex="1" parent="1">
          <mxGeometry x="80" y="1150" width="890" height="360" as="geometry" />
        </mxCell>
        <mxCell id="E0s9owtsk1SM0bqnMgh_-14" value="[if subToVar]" style="text;align=center;fontStyle=1;verticalAlign=middle;spacingLeft=3;spacingRight=3;strokeColor=none;rotatable=0;points=[[0,0.5],[1,0.5]];portConstraint=eastwest;html=1;" vertex="1" parent="1">
          <mxGeometry x="144" y="1150" width="80" height="26" as="geometry" />
        </mxCell>
        <mxCell id="E0s9owtsk1SM0bqnMgh_-15" value="D. subToVar(Character var)" style="text;align=center;fontStyle=1;verticalAlign=middle;spacingLeft=3;spacingRight=3;strokeColor=none;rotatable=0;points=[[0,0.5],[1,0.5]];portConstraint=eastwest;html=1;" vertex="1" parent="1">
          <mxGeometry x="190" y="1164" width="179.5" height="26" as="geometry" />
        </mxCell>
        <mxCell id="E0s9owtsk1SM0bqnMgh_-16" value="Alt" style="shape=umlFrame;whiteSpace=wrap;html=1;pointerEvents=0;" vertex="1" parent="1">
          <mxGeometry x="100" y="1200" width="840" height="290" as="geometry" />
        </mxCell>
        <mxCell id="E0s9owtsk1SM0bqnMgh_-18" value="" style="endArrow=open;endFill=1;endSize=12;html=1;rounded=0;" edge="1" parent="1">
          <mxGeometry width="160" relative="1" as="geometry">
            <mxPoint x="190.5" y="1189" as="sourcePoint" />
            <mxPoint x="370.5" y="1188.9999999999998" as="targetPoint" />
          </mxGeometry>
        </mxCell>
        <mxCell id="E0s9owtsk1SM0bqnMgh_-21" value="" style="endArrow=open;endFill=1;endSize=12;html=1;rounded=0;" edge="1" parent="1">
          <mxGeometry width="160" relative="1" as="geometry">
            <mxPoint x="378" y="1360" as="sourcePoint" />
            <mxPoint x="548" y="1360" as="targetPoint" />
          </mxGeometry>
        </mxCell>
        <mxCell id="E0s9owtsk1SM0bqnMgh_-24" value="pop()" style="text;strokeColor=none;align=center;fillColor=none;html=1;verticalAlign=middle;whiteSpace=wrap;rounded=0;" vertex="1" parent="1">
          <mxGeometry x="433" y="1329.996" width="60" height="30" as="geometry" />
        </mxCell>
        <mxCell id="E0s9owtsk1SM0bqnMgh_-27" value="&lt;font style=&quot;font-size: 12px;&quot;&gt;!leastOne()&lt;/font&gt;" style="text;html=1;strokeColor=none;fillColor=none;align=center;verticalAlign=middle;whiteSpace=wrap;rounded=0;fontSize=16;" vertex="1" parent="1">
          <mxGeometry x="410" y="1200" width="73.5" height="30" as="geometry" />
        </mxCell>
        <mxCell id="E0s9owtsk1SM0bqnMgh_-28" value="" style="endArrow=open;endFill=1;endSize=12;html=1;rounded=0;" edge="1" parent="1">
          <mxGeometry width="160" relative="1" as="geometry">
            <mxPoint x="377.9966666666665" y="1230" as="sourcePoint" />
            <mxPoint x="548" y="1230.5" as="targetPoint" />
          </mxGeometry>
        </mxCell>
        <mxCell id="E0s9owtsk1SM0bqnMgh_-30" value="" style="endArrow=open;endFill=1;endSize=12;html=1;rounded=0;" edge="1" parent="1">
          <mxGeometry width="160" relative="1" as="geometry">
            <mxPoint x="560.4966666666664" y="1283" as="sourcePoint" />
            <mxPoint x="802.5" y="1285" as="targetPoint" />
          </mxGeometry>
        </mxCell>
        <mxCell id="E0s9owtsk1SM0bqnMgh_-31" value="" style="html=1;verticalAlign=bottom;endArrow=open;dashed=1;endSize=8;curved=0;rounded=0;fontSize=12;" edge="1" parent="1" source="9F1jh5PW8uQruH1zrCdh-22">
          <mxGeometry y="-50" relative="1" as="geometry">
            <mxPoint x="802.5" y="1309" as="sourcePoint" />
            <mxPoint x="560.5" y="1309" as="targetPoint" />
            <Array as="points">
              <mxPoint x="610.5" y="1309" />
            </Array>
            <mxPoint as="offset" />
          </mxGeometry>
        </mxCell>
        <mxCell id="E0s9owtsk1SM0bqnMgh_-32" value="" style="html=1;verticalAlign=bottom;endArrow=open;dashed=1;endSize=8;curved=0;rounded=0;fontSize=12;" edge="1" parent="1">
          <mxGeometry y="-50" relative="1" as="geometry">
            <mxPoint x="550.5" y="1308" as="sourcePoint" />
            <mxPoint x="190.5" y="1308" as="targetPoint" />
            <Array as="points">
              <mxPoint x="240.5" y="1308" />
            </Array>
            <mxPoint as="offset" />
          </mxGeometry>
        </mxCell>
        <mxCell id="E0s9owtsk1SM0bqnMgh_-33" value="error" style="text;align=center;fontStyle=1;verticalAlign=middle;spacingLeft=3;spacingRight=3;strokeColor=none;rotatable=0;points=[[0,0.5],[1,0.5]];portConstraint=eastwest;html=1;" vertex="1" parent="1">
          <mxGeometry x="270.5" y="1285" width="80" height="26" as="geometry" />
        </mxCell>
        <mxCell id="E0s9owtsk1SM0bqnMgh_-39" value="&lt;span style=&quot;color: rgb(0, 0, 0); font-family: Helvetica; font-size: 12px; font-style: normal; font-variant-ligatures: normal; font-variant-caps: normal; font-weight: 400; letter-spacing: normal; orphans: 2; text-align: left; text-indent: 0px; text-transform: none; widows: 2; word-spacing: 0px; -webkit-text-stroke-width: 0px; background-color: rgb(251, 251, 251); text-decoration-thickness: initial; text-decoration-style: initial; text-decoration-color: initial; float: none; display: inline !important;&quot;&gt;InsuffElemStackException(String)&lt;/span&gt;" style="text;whiteSpace=wrap;html=1;fontSize=16;" vertex="1" parent="1">
          <mxGeometry x="570.5" y="572" width="210" height="40" as="geometry" />
        </mxCell>
        <mxCell id="E0s9owtsk1SM0bqnMgh_-51" value="&lt;span style=&quot;color: rgb(0, 0, 0); font-family: Helvetica; font-size: 12px; font-style: normal; font-variant-ligatures: normal; font-variant-caps: normal; font-weight: 400; letter-spacing: normal; orphans: 2; text-align: left; text-indent: 0px; text-transform: none; widows: 2; word-spacing: 0px; -webkit-text-stroke-width: 0px; background-color: rgb(251, 251, 251); text-decoration-thickness: initial; text-decoration-style: initial; text-decoration-color: initial; float: none; display: inline !important;&quot;&gt;InsuffElemStackException(String)&lt;/span&gt;" style="text;whiteSpace=wrap;html=1;fontSize=16;" vertex="1" parent="1">
          <mxGeometry x="570.5" y="1250" width="210" height="40" as="geometry" />
        </mxCell>
        <mxCell id="E0s9owtsk1SM0bqnMgh_-56" value="" style="html=1;points=[[0,0,0,0,5],[0,1,0,0,-5],[1,0,0,0,5],[1,1,0,0,-5]];perimeter=orthogonalPerimeter;outlineConnect=0;targetShapes=umlLifeline;portConstraint=eastwest;newEdgeStyle={&quot;curved&quot;:0,&quot;rounded&quot;:0};" vertex="1" parent="1">
          <mxGeometry x="370" y="505" width="10" height="215" as="geometry" />
        </mxCell>
        <mxCell id="E0s9owtsk1SM0bqnMgh_-58" value="" style="html=1;points=[[0,0,0,0,5],[0,1,0,0,-5],[1,0,0,0,5],[1,1,0,0,-5]];perimeter=orthogonalPerimeter;outlineConnect=0;targetShapes=umlLifeline;portConstraint=eastwest;newEdgeStyle={&quot;curved&quot;:0,&quot;rounded&quot;:0};" vertex="1" parent="1">
          <mxGeometry x="370" y="790.5" width="10" height="329.5" as="geometry" />
        </mxCell>
        <mxCell id="E0s9owtsk1SM0bqnMgh_-63" value="" style="html=1;points=[[0,0,0,0,5],[0,1,0,0,-5],[1,0,0,0,5],[1,1,0,0,-5]];perimeter=orthogonalPerimeter;outlineConnect=0;targetShapes=umlLifeline;portConstraint=eastwest;newEdgeStyle={&quot;curved&quot;:0,&quot;rounded&quot;:0};" vertex="1" parent="1">
          <mxGeometry x="370" y="1180.25" width="10" height="309.75" as="geometry" />
        </mxCell>
        <mxCell id="9F1jh5PW8uQruH1zrCdh-1" value="" style="shape=umlLifeline;perimeter=lifelinePerimeter;whiteSpace=wrap;html=1;container=1;dropTarget=0;collapsible=0;recursiveResize=0;outlineConnect=0;portConstraint=eastwest;newEdgeStyle={&quot;curved&quot;:0,&quot;rounded&quot;:0};participant=umlActor;" vertex="1" parent="1">
          <mxGeometry x="30" y="80" width="20" height="1470" as="geometry" />
        </mxCell>
        <mxCell id="9F1jh5PW8uQruH1zrCdh-2" value="" style="html=1;points=[[0,0,0,0,5],[0,1,0,0,-5],[1,0,0,0,5],[1,1,0,0,-5]];perimeter=orthogonalPerimeter;outlineConnect=0;targetShapes=umlLifeline;portConstraint=eastwest;newEdgeStyle={&quot;curved&quot;:0,&quot;rounded&quot;:0};" vertex="1" parent="9F1jh5PW8uQruH1zrCdh-1">
          <mxGeometry x="5" y="86" width="10" height="1354" as="geometry" />
        </mxCell>
        <mxCell id="E0s9owtsk1SM0bqnMgh_-35" value="&lt;span style=&quot;color: rgb(0, 0, 0); font-family: Helvetica; font-size: 12px; font-style: normal; font-variant-ligatures: normal; font-variant-caps: normal; font-weight: 400; letter-spacing: normal; orphans: 2; text-align: left; text-indent: 0px; text-transform: none; widows: 2; word-spacing: 0px; -webkit-text-stroke-width: 0px; background-color: rgb(251, 251, 251); text-decoration-thickness: initial; text-decoration-style: initial; text-decoration-color: initial; float: none; display: inline !important;&quot;&gt;FullStackException(String)&lt;/span&gt;" style="text;whiteSpace=wrap;html=1;fontSize=16;" vertex="1" parent="1">
          <mxGeometry x="560" y="293.5" width="160" height="40" as="geometry" />
        </mxCell>
        <mxCell id="9F1jh5PW8uQruH1zrCdh-6" value=":FullStackException" style="shape=umlLifeline;perimeter=lifelinePerimeter;whiteSpace=wrap;html=1;container=1;dropTarget=0;collapsible=0;recursiveResize=0;outlineConnect=0;portConstraint=eastwest;newEdgeStyle={&quot;curved&quot;:0,&quot;rounded&quot;:0};" vertex="1" parent="1">
          <mxGeometry x="720" y="271" width="150" height="109" as="geometry" />
        </mxCell>
        <mxCell id="9F1jh5PW8uQruH1zrCdh-9" value="" style="html=1;points=[[0,0,0,0,5],[0,1,0,0,-5],[1,0,0,0,5],[1,1,0,0,-5]];perimeter=orthogonalPerimeter;outlineConnect=0;targetShapes=umlLifeline;portConstraint=eastwest;newEdgeStyle={&quot;curved&quot;:0,&quot;rounded&quot;:0};" vertex="1" parent="9F1jh5PW8uQruH1zrCdh-6">
          <mxGeometry x="70" y="59" width="10" height="31" as="geometry" />
        </mxCell>
        <mxCell id="9F1jh5PW8uQruH1zrCdh-7" value="" style="endArrow=open;endFill=1;endSize=12;html=1;rounded=0;" edge="1" parent="1" source="JTToezeW8souKB9VHQ9I-14" target="9F1jh5PW8uQruH1zrCdh-6">
          <mxGeometry width="160" relative="1" as="geometry">
            <mxPoint x="650" y="400" as="sourcePoint" />
            <mxPoint x="810" y="400" as="targetPoint" />
            <Array as="points">
              <mxPoint x="670" y="330" />
            </Array>
          </mxGeometry>
        </mxCell>
        <mxCell id="1E0dOz9bMTVQA5IC1F03-22" value="error" style="text;align=center;fontStyle=1;verticalAlign=middle;spacingLeft=3;spacingRight=3;strokeColor=none;rotatable=0;points=[[0,0.5],[1,0.5]];portConstraint=eastwest;html=1;" vertex="1" parent="1">
          <mxGeometry x="600" y="330" width="80" height="26" as="geometry" />
        </mxCell>
        <mxCell id="9F1jh5PW8uQruH1zrCdh-17" value=":InsuffElemStackException" style="shape=umlLifeline;perimeter=lifelinePerimeter;whiteSpace=wrap;html=1;container=1;dropTarget=0;collapsible=0;recursiveResize=0;outlineConnect=0;portConstraint=eastwest;newEdgeStyle={&quot;curved&quot;:0,&quot;rounded&quot;:0};" vertex="1" parent="1">
          <mxGeometry x="737.5" y="544.5" width="180" height="117" as="geometry" />
        </mxCell>
        <mxCell id="9F1jh5PW8uQruH1zrCdh-19" value="" style="html=1;points=[[0,0,0,0,5],[0,1,0,0,-5],[1,0,0,0,5],[1,1,0,0,-5]];perimeter=orthogonalPerimeter;outlineConnect=0;targetShapes=umlLifeline;portConstraint=eastwest;newEdgeStyle={&quot;curved&quot;:0,&quot;rounded&quot;:0};" vertex="1" parent="9F1jh5PW8uQruH1zrCdh-17">
          <mxGeometry x="85" y="51" width="10" height="25.5" as="geometry" />
        </mxCell>
        <mxCell id="9F1jh5PW8uQruH1zrCdh-20" value=":InsuffElemStackException" style="shape=umlLifeline;perimeter=lifelinePerimeter;whiteSpace=wrap;html=1;container=1;dropTarget=0;collapsible=0;recursiveResize=0;outlineConnect=0;portConstraint=eastwest;newEdgeStyle={&quot;curved&quot;:0,&quot;rounded&quot;:0};" vertex="1" parent="1">
          <mxGeometry x="737.5" y="832" width="180" height="117" as="geometry" />
        </mxCell>
        <mxCell id="9F1jh5PW8uQruH1zrCdh-21" value="" style="html=1;points=[[0,0,0,0,5],[0,1,0,0,-5],[1,0,0,0,5],[1,1,0,0,-5]];perimeter=orthogonalPerimeter;outlineConnect=0;targetShapes=umlLifeline;portConstraint=eastwest;newEdgeStyle={&quot;curved&quot;:0,&quot;rounded&quot;:0};" vertex="1" parent="9F1jh5PW8uQruH1zrCdh-20">
          <mxGeometry x="85" y="60.5" width="10" height="25.5" as="geometry" />
        </mxCell>
        <mxCell id="9F1jh5PW8uQruH1zrCdh-22" value=":InsuffElemStackException" style="shape=umlLifeline;perimeter=lifelinePerimeter;whiteSpace=wrap;html=1;container=1;dropTarget=0;collapsible=0;recursiveResize=0;outlineConnect=0;portConstraint=eastwest;newEdgeStyle={&quot;curved&quot;:0,&quot;rounded&quot;:0};" vertex="1" parent="1">
          <mxGeometry x="720" y="1220" width="180" height="110" as="geometry" />
        </mxCell>
        <mxCell id="9F1jh5PW8uQruH1zrCdh-23" value="" style="html=1;points=[[0,0,0,0,5],[0,1,0,0,-5],[1,0,0,0,5],[1,1,0,0,-5]];perimeter=orthogonalPerimeter;outlineConnect=0;targetShapes=umlLifeline;portConstraint=eastwest;newEdgeStyle={&quot;curved&quot;:0,&quot;rounded&quot;:0};" vertex="1" parent="9F1jh5PW8uQruH1zrCdh-22">
          <mxGeometry x="85" y="60.5" width="10" height="25.5" as="geometry" />
        </mxCell>
        <mxCell id="9F1jh5PW8uQruH1zrCdh-24" value="&lt;span style=&quot;color: rgb(0, 0, 0); font-family: Helvetica; font-size: 12px; font-style: normal; font-variant-ligatures: normal; font-variant-caps: normal; font-weight: 400; letter-spacing: normal; orphans: 2; text-align: left; text-indent: 0px; text-transform: none; widows: 2; word-spacing: 0px; -webkit-text-stroke-width: 0px; background-color: rgb(251, 251, 251); text-decoration-thickness: initial; text-decoration-style: initial; text-decoration-color: initial; float: none; display: inline !important;&quot;&gt;InsuffElemStackException(String)&lt;/span&gt;" style="text;whiteSpace=wrap;html=1;fontSize=16;" vertex="1" parent="1">
          <mxGeometry x="560" y="860" width="210" height="40" as="geometry" />
        </mxCell>
        <mxCell id="9F1jh5PW8uQruH1zrCdh-26" value="[!leastOne()]" style="text;html=1;strokeColor=none;fillColor=none;align=center;verticalAlign=middle;whiteSpace=wrap;rounded=0;fontSize=16;" vertex="1" parent="1">
          <mxGeometry x="149.5" y="810" width="110.5" height="30" as="geometry" />
        </mxCell>
        <mxCell id="9F1jh5PW8uQruH1zrCdh-27" value="[!leastOne()]" style="text;html=1;strokeColor=none;fillColor=none;align=center;verticalAlign=middle;whiteSpace=wrap;rounded=0;fontSize=16;" vertex="1" parent="1">
          <mxGeometry x="149.5" y="1200" width="110.5" height="30" as="geometry" />
        </mxCell>
        <mxCell id="9F1jh5PW8uQruH1zrCdh-31" value="" style="html=1;points=[[0,0,0,0,5],[0,1,0,0,-5],[1,0,0,0,5],[1,1,0,0,-5]];perimeter=orthogonalPerimeter;outlineConnect=0;targetShapes=umlLifeline;portConstraint=eastwest;newEdgeStyle={&quot;curved&quot;:0,&quot;rounded&quot;:0};" vertex="1" parent="1">
          <mxGeometry x="375" y="1076" width="10" height="44" as="geometry" />
        </mxCell>
        <mxCell id="9F1jh5PW8uQruH1zrCdh-32" value="put()" style="html=1;align=left;spacingLeft=2;endArrow=block;rounded=0;edgeStyle=orthogonalEdgeStyle;curved=0;rounded=0;" edge="1" parent="1" target="9F1jh5PW8uQruH1zrCdh-31">
          <mxGeometry relative="1" as="geometry">
            <mxPoint x="380" y="1056" as="sourcePoint" />
            <Array as="points">
              <mxPoint x="410" y="1086" />
            </Array>
          </mxGeometry>
        </mxCell>
        <mxCell id="9F1jh5PW8uQruH1zrCdh-33" value="" style="html=1;points=[[0,0,0,0,5],[0,1,0,0,-5],[1,0,0,0,5],[1,1,0,0,-5]];perimeter=orthogonalPerimeter;outlineConnect=0;targetShapes=umlLifeline;portConstraint=eastwest;newEdgeStyle={&quot;curved&quot;:0,&quot;rounded&quot;:0};" vertex="1" parent="1">
          <mxGeometry x="378" y="1450" width="10" height="40" as="geometry" />
        </mxCell>
        <mxCell id="9F1jh5PW8uQruH1zrCdh-34" value="put()" style="html=1;align=left;spacingLeft=2;endArrow=block;rounded=0;edgeStyle=orthogonalEdgeStyle;curved=0;rounded=0;" edge="1" parent="1" target="9F1jh5PW8uQruH1zrCdh-33">
          <mxGeometry relative="1" as="geometry">
            <mxPoint x="380" y="1430" as="sourcePoint" />
            <Array as="points">
              <mxPoint x="413" y="1460" />
            </Array>
          </mxGeometry>
        </mxCell>
        <mxCell id="9F1jh5PW8uQruH1zrCdh-35" value="" style="endArrow=open;endFill=1;endSize=12;html=1;rounded=0;" edge="1" parent="1">
          <mxGeometry width="160" relative="1" as="geometry">
            <mxPoint x="191.5" y="1035.9999999999998" as="sourcePoint" />
            <mxPoint x="371.5" y="1035.9999999999998" as="targetPoint" />
          </mxGeometry>
        </mxCell>
        <mxCell id="E0s9owtsk1SM0bqnMgh_-22" value="Number( ultimo.getRe() + incremento.getRe(), &lt;br&gt;ultimo.getIm() + incremento.getIm())" style="text;strokeColor=none;align=center;fillColor=none;html=1;verticalAlign=middle;whiteSpace=wrap;rounded=0;" vertex="1" parent="1">
          <mxGeometry x="105" y="1006" width="270" height="30" as="geometry" />
        </mxCell>
        <mxCell id="9F1jh5PW8uQruH1zrCdh-38" value="" style="endArrow=open;endFill=1;endSize=12;html=1;rounded=0;" edge="1" parent="1" target="E0s9owtsk1SM0bqnMgh_-63">
          <mxGeometry width="160" relative="1" as="geometry">
            <mxPoint x="190" y="1420" as="sourcePoint" />
            <mxPoint x="350" y="1420" as="targetPoint" />
          </mxGeometry>
        </mxCell>
        <mxCell id="9F1jh5PW8uQruH1zrCdh-40" value="" style="html=1;points=[[0,0,0,0,5],[0,1,0,0,-5],[1,0,0,0,5],[1,1,0,0,-5]];perimeter=orthogonalPerimeter;outlineConnect=0;targetShapes=umlLifeline;portConstraint=eastwest;newEdgeStyle={&quot;curved&quot;:0,&quot;rounded&quot;:0};" vertex="1" parent="1">
          <mxGeometry x="378" y="690" width="10" height="30" as="geometry" />
        </mxCell>
        <mxCell id="9F1jh5PW8uQruH1zrCdh-41" value="put()" style="html=1;align=left;spacingLeft=2;endArrow=block;rounded=0;edgeStyle=orthogonalEdgeStyle;curved=0;rounded=0;" edge="1" parent="1" target="9F1jh5PW8uQruH1zrCdh-40">
          <mxGeometry relative="1" as="geometry">
            <mxPoint x="383" y="670" as="sourcePoint" />
            <Array as="points">
              <mxPoint x="413" y="700" />
            </Array>
          </mxGeometry>
        </mxCell>
      </root>
    </mxGraphModel>
  </diagram>
</mxfile>
